<svg xmlns="http://www.w3.org/2000/svg" viewBox="0 0 100 100"><rect width="100" height="100" rx="22" fill="#1E4D52"/><g transform="translate(50,50) scale(0.86) translate(-50,-50)"><path fill-rule="evenodd" fill="#F5EDE8" d="M26.48 96.77 L20.66 93.80 L9.91 83.71 L5.97 79.26 L3.52 74.34 L3.03 69.74 L3.44 66.97 L4.62 63.90 L7.76 59.48 L15.89 51.30 L16.55 50.07 L15.75 48.70 L6.53 39.44 L4.92 36.87 L3.73 33.79 L3.01 29.80 L3.44 26.73 L4.31 24.27 L7.45 19.54 L18.82 7.84 L21.89 5.50 L24.96 3.98 L30.19 3.30 L33.87 3.98 L36.94 5.46 L38.91 6.76 L45.55 13.35 L49.23 16.72 L50.15 17.14 L51.21 16.59 L59.68 8.16 L62.44 5.99 L66.74 3.85 L70.74 3.23 L75.65 4.23 L78.11 5.48 L81.02 7.68 L93.20 19.97 L95.99 24.58 L96.99 28.57 L96.87 31.95 L94.84 37.48 L93.30 39.63 L84.10 48.85 L83.33 50.07 L84.10 51.61 L92.85 60.09 L95.50 63.90 L96.97 68.81 L96.97 71.58 L96.28 74.65 L94.73 78.03 L92.65 80.79 L83.33 90.16 L78.41 94.35 L73.80 96.77Z M50.69 69.74 L56.45 63.59 L85.79 34.52 L87.15 31.64 L87.38 29.80 L86.91 27.65 L84.29 24.27 L75.08 14.75 L71.66 13.13 L68.58 13.51 L65.21 15.91 L57.99 23.04 L57.28 24.27 L57.83 25.33 L71.22 39.32 L71.39 40.24 L71.05 41.17 L67.66 44.68 L65.82 45.55 L63.62 44.55 L54.38 35.02 L50.15 31.27 L48.62 32.11 L36.33 44.68 L35.41 45.28 L34.18 45.42 L32.95 44.68 L29.26 40.95 L28.88 39.94 L29.09 39.02 L42.29 24.88 L42.72 23.66 L42.00 22.43 L36.94 17.36 L32.95 14.10 L29.88 13.07 L26.50 13.80 L23.73 15.83 L13.89 26.11 L12.98 27.96 L12.68 30.11 L13.26 32.87 L14.98 35.33 L40.78 60.52 L46.30 66.05 L49.11 69.43 L49.85 69.92 L50.69 69.74Z M30.88 87.25 L33.59 86.02 L37.56 82.47 L42.26 77.72 L42.67 76.19 L41.86 74.81 L26.19 58.83 L24.35 57.28 L23.43 57.02 L13.87 66.36 L12.72 69.43 L12.96 72.19 L15.00 75.57 L24.96 85.50 L28.34 87.18 L30.88 87.25Z M71.47 87.25 L73.94 86.32 L76.26 84.63 L84.97 75.57 L87.10 71.89 L87.10 68.51 L85.79 65.72 L77.63 57.75 L76.57 57.18 L75.65 57.44 L74.42 58.52 L57.99 75.26 L57.21 76.49 L57.83 77.86 L65.51 85.44 L68.89 87.18 L71.47 87.25Z M67.34 96.77 L63.23 94.92 L60.60 93.12 L56.77 89.70 L51.69 84.34 L49.85 83.31 L48.79 83.87 L42.31 90.62 L38.48 93.80 L36.02 95.44 L32.97 96.77Z"/></g></svg>