<svg xmlns="http://www.w3.org/2000/svg" viewBox="0 0 100 100"><rect width="100" height="100" rx="22" fill="#1E4D52"/><g transform="translate(16,16) scale(0.68)"><path fill-rule="evenodd" fill="#F5EDE8" d="M27.56 0.38 L30.44 0.51 L33.15 1.17 L35.68 2.33 L40.26 6.03 L46.86 12.24 L53.78 12.04 L61.02 5.43 L66.09 1.65 L69.02 0.68 L71.86 0.29 L74.61 0.48 L77.45 1.35 L80.36 2.91 L85.93 7.98 L94.14 16.59 L98.73 22.27 L99.70 25.01 L100.19 27.47 L100.18 29.65 L99.79 31.90 L99.02 34.21 L98.15 36.14 L97.18 37.70 L93.87 41.46 L88.19 47.44 L87.91 52.92 L93.01 57.89 L96.23 61.35 L97.58 63.28 L98.73 65.62 L99.70 68.35 L100.09 71.19 L99.90 74.14 L98.74 77.45 L96.62 81.12 L91.64 86.69 L83.78 94.14 L78.68 98.36 L76.32 99.33 L73.50 99.81 L70.22 99.81 L67.69 99.52 L65.90 98.92 L63.47 97.48 L60.40 95.19 L56.63 91.87 L52.18 87.53 L46.40 88.58 L39.30 95.03 L34.76 98.64 L32.79 99.42 L30.04 99.81 L26.53 99.80 L22.84 98.74 L18.97 96.62 L13.89 92.50 L7.59 86.40 L3.67 82.19 L2.14 79.88 L0.98 77.54 L0.20 75.18 L0.10 71.94 L0.69 67.83 L2.33 63.95 L5.01 60.30 L8.42 56.44 L12.57 52.37 L11.61 47.07 L5.54 40.53 L1.84 35.35 L0.49 31.52 L-0.09 28.49 L0.11 26.26 L1.07 23.50 L2.81 20.21 L7.30 14.84 L14.55 7.40 L19.34 3.01 L21.65 1.66 L23.63 0.82 L25.29 0.48Z M77.97 57.80 L79.02 57.98 L81.74 60.26 L86.13 64.65 L88.72 67.83 L89.52 69.80 L89.81 71.61 L89.62 73.26 L86.84 77.18 L81.47 83.34 L77.62 87.20 L75.31 88.74 L73.31 89.61 L71.62 89.81 L69.70 89.42 L67.55 88.44 L64.27 85.75 L59.88 81.36 L57.66 78.87 L57.63 78.30 L62.58 72.94 L72.49 62.79Z M42.20 77.97 L42.02 79.02 L39.74 81.74 L35.35 86.13 L32.17 88.72 L30.20 89.52 L28.39 89.81 L26.74 89.62 L22.82 86.84 L16.66 81.47 L12.80 77.62 L11.26 75.31 L10.39 73.31 L10.19 71.62 L10.58 69.70 L11.56 67.55 L14.25 64.27 L18.64 59.88 L21.13 57.66 L21.70 57.63 L27.06 62.58 L37.21 72.49Z M22.03 42.20 L20.98 42.03 L18.26 39.74 L13.87 35.35 L11.28 32.17 L10.48 30.20 L10.19 28.39 L10.37 26.74 L13.16 22.82 L18.53 16.66 L22.37 12.80 L24.68 11.26 L26.68 10.39 L28.37 10.19 L30.30 10.58 L32.45 11.56 L35.73 14.25 L40.12 18.64 L42.34 21.13 L42.37 21.70 L37.42 27.06 L27.51 37.21Z M57.80 22.03 L57.97 20.98 L60.26 18.26 L64.65 13.87 L67.83 11.28 L69.80 10.48 L71.61 10.18 L73.26 10.37 L77.18 13.16 L83.34 18.53 L87.20 22.37 L88.74 24.68 L89.61 26.68 L89.81 28.37 L89.42 30.30 L88.44 32.45 L85.75 35.73 L81.36 40.12 L78.87 42.33 L78.30 42.36 L72.94 37.42 L62.79 27.51Z"/></g></svg>